<?xml version="1.0" encoding="UTF-8" standalone="no"?>
<svg width="24px" height="24px" viewBox="0 0 24 24" version="1.1" xmlns="http://www.w3.org/2000/svg" xmlns:xlink="http://www.w3.org/1999/xlink">
    <!-- Generator: Sketch 39.1 (31720) - http://www.bohemiancoding.com/sketch -->
    <title>Stroke 64</title>
    <desc>Created with Sketch.</desc>
    <defs></defs>
    <g id="Page-1" stroke="none" stroke-width="1" fill="none" fill-rule="evenodd" stroke-linecap="round" stroke-linejoin="round">
        <g id="-Icon54---24x_Grid_set_2_Smart_Stroke" transform="translate(-839.000000, -2574.000000)" stroke="#FFFFFF" fill="#FFFFFF">
            <g id="Social-Icons" transform="translate(736.000000, 2488.000000)">
                <g id="Group-379" transform="translate(103.000000, 86.000000)">
                    <path d="M12.0001,0.5 C5.6491,0.5 0.5001,5.649 0.5001,12 C0.5001,17.492 4.3521,22.077 9.5001,23.22 L9.5001,20.5 L8.5001,20.5 C5.8751,20.5 4.9581,16.5 3.5001,16.5 C6.2921,16.5 6.8331,18.5 8.5001,18.5 C8.5001,18.5 9.5001,18.625 9.5001,17.5 L9.5001,17.151 C6.5891,16.327 4.5001,14.111 4.5001,11.5 C4.5001,10.121 5.0881,8.854 6.0651,7.841 C5.5711,6.775 5.7251,5.275 6.5001,4.5 C7.1831,4.681 8.2231,5.265 8.8821,6.048 C9.8321,5.699 10.8861,5.5 12.0001,5.5 C13.1141,5.5 14.1681,5.699 15.1181,6.048 C15.7771,5.265 16.8171,4.681 17.5001,4.5 C18.2751,5.275 18.4291,6.775 17.9351,7.841 C18.9121,8.854 19.5001,10.121 19.5001,11.5 C19.5001,14.236 17.2091,16.54 14.0791,17.261 C14.3421,17.758 14.5001,18.429 14.5001,19.5 L14.5001,23.22 C19.6481,22.077 23.5001,17.492 23.5001,12 C23.5001,5.649 18.3511,0.5 12.0001,0.5 L12.0001,0.5 Z" id="Stroke-64"></path>
                </g>
            </g>
        </g>
    </g>
</svg>