<?xml version="1.0" encoding="UTF-8" standalone="no"?>
<svg width="23px" height="26px" viewBox="0 0 23 26" version="1.1" xmlns="http://www.w3.org/2000/svg" xmlns:xlink="http://www.w3.org/1999/xlink">
    <!-- Generator: Sketch 39.1 (31720) - http://www.bohemiancoding.com/sketch -->
    <title>Stroke 444</title>
    <desc>Created with Sketch.</desc>
    <defs></defs>
    <g id="Page-1" stroke="none" stroke-width="1" fill="none" fill-rule="evenodd" stroke-linecap="round" stroke-linejoin="round">
        <g id="-Icon54---24x_Grid_set_2_Smart_Stroke" transform="translate(-840.000000, -2813.000000)" stroke="#FFFFFF" fill="#FFFFFF">
            <g id="Social-Icons" transform="translate(736.000000, 2488.000000)">
                <g id="Group-284" transform="translate(104.000000, 326.000000)">
                    <path d="M20.5585,5.5801 L18.8615,4.6281 C17.4585,4.4531 16.7215,5.5771 16.0005,6.5001 C15.1045,7.6461 14.5005,8.9371 14.5005,10.0001 C14.5005,11.0621 15.7595,12.9911 16.6345,13.8661 C17.1225,14.3541 17.1225,15.1461 16.6345,15.6341 C16.1455,16.1221 15.3545,16.1221 14.8665,15.6341 C14.4075,15.1741 14.3965,14.4551 14.8015,13.9641 C14.5545,13.3721 14.0935,12.5001 13.5005,12.5001 C12.7195,12.5001 11.7105,15.8551 11.1945,17.1021 C11.3855,17.3511 11.5005,17.6611 11.5005,18.0001 C11.5005,18.8281 10.8285,19.5001 10.0005,19.5001 C9.1715,19.5001 8.5005,18.8281 8.5005,18.0001 C8.5005,17.4851 8.7655,17.0381 9.1615,16.7691 C9.8735,15.5741 11.0005,11.5001 11.0005,11.5001 C11.0005,11.5001 8.7365,12.9601 7.4535,13.7331 C7.3455,14.1691 6.9695,14.5001 6.5005,14.5001 C5.9475,14.5001 5.5005,14.0521 5.5005,13.5001 C5.5005,12.9481 5.9475,12.5001 6.5005,12.5001 C7.7815,12.5001 9.7655,10.2341 10.5005,9.5001 C9.9505,10.0501 8.2895,10.0191 7.3445,10.0041 C7.1695,10.2951 6.8645,10.5001 6.5005,10.5001 C5.9475,10.5001 5.5005,10.0521 5.5005,9.5001 C5.5005,8.9481 5.9475,8.5001 6.5005,8.5001 C8.5005,8.8751 10.7815,8.2811 12.5005,6.0001 C13.9775,4.0401 14.2485,2.4771 13.7815,1.7781 L11.9415,0.7451 C11.3595,0.4181 10.6415,0.4181 10.0585,0.7451 L1.4415,5.5801 C0.8595,5.9071 0.5005,6.5111 0.5005,7.1651 L0.5005,16.8351 C0.5005,17.4891 0.8595,18.0931 1.4415,18.4201 L10.0585,23.2551 C10.6415,23.5821 11.3595,23.5821 11.9415,23.2551 L20.5585,18.4201 C21.1415,18.0931 21.5005,17.4891 21.5005,16.8351 L21.5005,7.1651 C21.5005,6.5111 21.1415,5.9071 20.5585,5.5801 L20.5585,5.5801 Z" id="Stroke-444"></path>
                </g>
            </g>
        </g>
    </g>
</svg>