<?xml version="1.0" encoding="UTF-8" standalone="no"?>
<svg width="23px" height="19px" viewBox="0 0 23 19" version="1.1" xmlns="http://www.w3.org/2000/svg" xmlns:xlink="http://www.w3.org/1999/xlink">
    <!-- Generator: Sketch 39.1 (31720) - http://www.bohemiancoding.com/sketch -->
    <title>Stroke 35</title>
    <desc>Created with Sketch.</desc>
    <defs></defs>
    <g id="Page-1" stroke="none" stroke-width="1" fill="none" fill-rule="evenodd" stroke-linecap="round" stroke-linejoin="round">
        <g id="-Icon54---24x_Grid_set_2_Smart_Stroke" transform="translate(-936.000000, -2528.000000)" stroke="#FFFFFF" fill="#FFFFFF">
            <g id="Social-Icons" transform="translate(736.000000, 2488.000000)">
                <g id="Group-388" transform="translate(200.000000, 40.000000)">
                    <path d="M1.5665,1.3085 C3.4085,3.6095 6.4025,5.7735 10.8285,6.0065 C10.5845,5.0075 10.7325,2.4355 12.6625,1.3085 C14.5915,0.1815 16.6525,0.1055 18.5625,1.9005 C19.4225,1.7775 21.0275,1.0985 21.4085,0.8315 C21.1605,1.7675 20.1685,2.9685 19.4515,3.2535 C20.1095,3.2515 21.5565,2.8655 22.0005,2.6365 C21.3845,3.6095 20.3105,4.5405 19.7225,4.9275 C20.5975,12.6325 11.3735,22.7455 0.0005,16.3575 C2.4925,16.6445 5.1135,15.8125 6.6465,14.4375 C4.7135,14.3945 2.8905,13.4395 2.0005,11.4705 C2.9685,11.7675 3.9535,11.7045 4.4825,11.2575 C3.5805,11.1585 0.6255,9.7405 0.6255,6.6895 C1.2975,7.2365 2.1405,7.4705 2.8925,7.3205 C1.6625,6.6035 -0.0175,3.9785 1.5665,1.3085 L1.5665,1.3085 Z" id="Stroke-35"></path>
                </g>
            </g>
        </g>
    </g>
</svg>